<!-- Generated by IcoMoon.io -->
<svg version="1.1" xmlns="http://www.w3.org/2000/svg" width="768" height="768" viewBox="0 0 768 768">
    <g id="icomoon-ignore">
</g>
    <path d="M384 69.15c102.6 0 114.75 0.45 155.1 2.25 37.5 1.65 57.75 7.95 71.25 13.2 17.85 6.9 30.75 15.3 44.1 28.65 13.5 13.5 21.75 26.25 28.8 44.1 5.25 13.5 11.55 33.9 13.2 71.25 1.8 40.5 2.25 52.65 2.25 155.1s-0.45 114.75-2.25 155.1c-1.65 37.5-7.95 57.75-13.2 71.25-6.9 17.85-15.3 30.75-28.65 44.1-13.5 13.5-26.25 21.75-44.1 28.8-13.5 5.25-33.9 11.55-71.25 13.2-40.5 1.8-52.65 2.25-155.1 2.25s-114.75-0.45-155.1-2.25c-37.5-1.65-57.75-7.95-71.25-13.2-17.85-6.9-30.75-15.3-44.1-28.65-13.5-13.5-21.75-26.25-28.8-44.1-5.25-13.5-11.55-33.9-13.2-71.25-1.8-40.5-2.25-52.65-2.25-155.1s0.45-114.75 2.25-155.1c1.65-37.5 7.95-57.75 13.2-71.25 6.9-17.85 15.3-30.75 28.65-44.1 13.5-13.5 26.25-21.75 44.1-28.8 13.5-5.25 33.9-11.55 71.25-13.2 40.35-1.8 52.5-2.25 155.1-2.25zM384 0c-104.25 0-117.3 0.45-158.25 2.25-40.8 1.8-68.85 8.4-93.15 17.85-25.35 9.9-46.8 22.95-68.1 44.4-21.45 21.3-34.5 42.75-44.4 67.95-9.45 24.45-16.050 52.35-17.85 93.15-1.8 41.1-2.25 54.15-2.25 158.4s0.45 117.3 2.25 158.25c1.8 40.8 8.4 68.85 17.85 93.15 9.9 25.35 22.95 46.8 44.4 68.1 21.3 21.3 42.75 34.5 67.95 44.25 24.45 9.45 52.35 16.050 93.15 17.85 40.95 1.8 54 2.25 158.25 2.25s117.3-0.45 158.25-2.25c40.8-1.8 68.85-8.4 93.15-17.85 25.2-9.75 46.65-22.95 67.95-44.25s34.5-42.75 44.25-67.95c9.45-24.45 16.050-52.35 17.85-93.15 1.8-40.95 2.25-54 2.25-158.25s-0.45-117.3-2.25-158.25c-1.8-40.8-8.4-68.85-17.85-93.15-9.45-25.5-22.5-46.95-43.95-68.25-21.3-21.3-42.75-34.5-67.95-44.25-24.45-9.45-52.35-16.050-93.15-17.85-41.1-1.95-54.15-2.4-158.4-2.4v0z"></path>
    <path d="M384 186.75c-108.9 0-197.25 88.35-197.25 197.25s88.35 197.25 197.25 197.25 197.25-88.35 197.25-197.25c0-108.9-88.35-197.25-197.25-197.25zM384 511.95c-70.65 0-127.95-57.3-127.95-127.95s57.3-127.95 127.95-127.95c70.65 0 127.95 57.3 127.95 127.95s-57.3 127.95-127.95 127.95z"></path>
    <path d="M635.1 178.95c0 25.433-20.617 46.050-46.050 46.050s-46.050-20.618-46.050-46.050c0-25.433 20.618-46.050 46.050-46.050s46.050 20.618 46.050 46.050z"></path>
</svg>