<!-- Generated by IcoMoon.io -->
<svg version="1.1" xmlns="http://www.w3.org/2000/svg" width="768" height="768" viewBox="0 0 768 768">
<g id="icomoon-ignore">
</g>
<path d="M768 169.8c-28.2 12.6-58.65 21-90.45 24.75 32.55-19.5 57.45-50.4 69.3-87.15-30.45 18-64.2 31.2-100.050 38.25-28.8-30.6-69.75-49.65-115.050-49.65-87 0-157.5 70.5-157.5 157.5 0 12.3 1.35 24.3 4.050 35.85-130.95-6.6-247.050-69.3-324.75-164.7-13.5 23.25-21.3 50.4-21.3 79.2 0 54.6 27.75 102.9 70.050 131.1-25.8-0.75-50.1-7.95-71.4-19.65 0 0.6 0 1.35 0 1.95 0 76.35 54.3 140.1 126.45 154.5-13.2 3.6-27.15 5.55-41.55 5.55-10.2 0-19.95-1.050-29.7-2.85 20.1 62.55 78.3 108.15 147.15 109.5-54 42.3-121.8 67.5-195.75 67.5-12.75 0-25.2-0.75-37.65-2.25 69.9 44.85 152.7 70.8 241.65 70.8 289.8 0 448.35-240.15 448.35-448.35 0-6.9-0.15-13.65-0.45-20.4 30.75-22.050 57.45-49.8 78.6-81.45z"></path>
</svg>
